# xmcd
#
# Track frame offsets:
#	150
#	13757
#	29300
#	42870
#	56797
#	65975
#	84460
#	97992
#	110992
#	125447
#	143520
#	154615
#	166507
#	181860
#
# Disc length: 2610
#
# Revision: 1
# Processed by: cddbd v1.5.1PL0 Copyright (c) Steve Scherf et al.
# Submitted via: VisiTrax 2.9.5.180 - For more info visit www.synapsa.com
# Normalized: r0:DSETVAR1
#
DISCID=b40a300e
DTITLE=Various Artist - Mr. Music Country 10-93
DYEAR=1993
DGENRE=
TTITLE0=Ronny Cox - Milkboone underwear
TTITLE1=Shania Twain - Crime of the century
TTITLE2=Hank Williams Jr. - I threw away the rose
TTITLE3=Jann Browne - I'll never grow tired of you
TTITLE4=Jeff Chance - Alone in San Antone
TTITLE5=Kathy Mattea - Standing knee deep in a river (dying of thirst)
TTITLE6=Lucky Lee - Pretty words
TTITLE7=Daniel Richard - Ft. Worthless feeling
TTITLE8=Candee Land - Strength of my weakness
TTITLE9=Sammy Kershaw - Still lovin' you
TTITLE10=Sylvia Winter - Home is were my heart is
TTITLE11=Jake and The Spitfires - Happy Hour
TTITLE12=Billy Ray Cyrus - She's not crin' anymore
TTITLE13=Somebody's darling - You'll remember me
EXTD=
EXTT0=
EXTT1=
EXTT2=
EXTT3=
EXTT4=
EXTT5=
EXTT6=
EXTT7=
EXTT8=
EXTT9=
EXTT10=
EXTT11=
EXTT12=
EXTT13=
PLAYORDER=
